<svg xmlns="http://www.w3.org/2000/svg" viewBox="0 0 600 400" preserveAspectRatio="xMidYMid slice" role="img">
<defs>
  <linearGradient id="bg" x1="0" y1="0" x2="1" y2="1">
    <stop offset="0%" stop-color="#fbe9dd"/>
    <stop offset="100%" stop-color="#faf7f2"/>
  </linearGradient>
  <radialGradient id="glow" cx="50%" cy="50%" r="55%">
    <stop offset="0%" stop-color="#d97757" stop-opacity="0.18"/>
    <stop offset="100%" stop-color="#d97757" stop-opacity="0"/>
  </radialGradient>
  <pattern id="dots" x="0" y="0" width="22" height="22" patternUnits="userSpaceOnUse">
    <circle cx="2" cy="2" r="1" fill="#d97757" opacity="0.13"/>
  </pattern>
</defs>
<rect width="600" height="400" fill="url(#bg)"/>
<rect width="600" height="400" fill="url(#dots)"/>
<rect width="600" height="400" fill="url(#glow)"/>

<g stroke="#d97757" stroke-width="3" fill="none" stroke-linecap="round">
  <path d="M60 130 Q200 130 240 100 Q280 70 350 100 Q420 130 540 130"/>
  <path d="M60 200 Q200 200 240 170 Q280 140 350 170 Q420 200 540 200" opacity="0.7"/>
  <path d="M60 270 Q200 270 240 240 Q280 210 350 240 Q420 270 540 270" opacity="0.45"/>
</g>
<g transform="translate(380 100)">
  <circle r="35" fill="#d97757"/>
  <circle r="55" fill="none" stroke="#d97757" stroke-width="2" opacity="0.4"/>
  <circle r="75" fill="none" stroke="#d97757" stroke-width="1" opacity="0.2"/>
  <text y="6" text-anchor="middle" font-family="Outfit, sans-serif" font-weight="900" font-size="22" fill="white">12</text>
  <text y="22" text-anchor="middle" font-family="JetBrains Mono, monospace" font-size="8" fill="white" font-weight="700">SEMAINES</text>
</g>
<g fill="#1c1917" font-family="Outfit, sans-serif" font-weight="900">
  <text x="60" y="80" font-size="14" letter-spacing="3">AIRALERT &middot; PWA</text>
</g>

</svg>