<svg xmlns="http://www.w3.org/2000/svg" viewBox="0 0 600 400" preserveAspectRatio="xMidYMid slice" role="img">
<defs>
  <linearGradient id="bg" x1="0" y1="0" x2="1" y2="1">
    <stop offset="0%" stop-color="#fbe9dd"/>
    <stop offset="100%" stop-color="#faf7f2"/>
  </linearGradient>
  <radialGradient id="glow" cx="50%" cy="50%" r="55%">
    <stop offset="0%" stop-color="#d97757" stop-opacity="0.18"/>
    <stop offset="100%" stop-color="#d97757" stop-opacity="0"/>
  </radialGradient>
  <pattern id="dots" x="0" y="0" width="22" height="22" patternUnits="userSpaceOnUse">
    <circle cx="2" cy="2" r="1" fill="#d97757" opacity="0.13"/>
  </pattern>
</defs>
<rect width="600" height="400" fill="url(#bg)"/>
<rect width="600" height="400" fill="url(#dots)"/>
<rect width="600" height="400" fill="url(#glow)"/>

<g stroke="#d97757" stroke-width="3" fill="none" stroke-linecap="round" stroke-linejoin="round">
  <path d="M40 220 L150 220 L180 160 L210 280 L240 100 L270 220 L380 220 L410 180 L440 240 L470 220 L560 220" />
</g>
<circle cx="510" cy="110" r="6" fill="#d97757"/>
<circle cx="510" cy="110" r="14" fill="none" stroke="#d97757" stroke-width="2" opacity="0.4"/>
<circle cx="510" cy="110" r="22" fill="none" stroke="#d97757" stroke-width="1.5" opacity="0.2"/>
<g transform="translate(110 90)" fill="#1c1917">
  <rect x="0" y="0" width="160" height="60" rx="10" fill="#1c1917"/>
  <text x="20" y="26" font-family="JetBrains Mono, monospace" font-size="11" fill="#d97757" font-weight="700" letter-spacing="1">BPM 72 · LIVE</text>
  <rect x="20" y="36" width="120" height="6" rx="3" fill="#d97757" opacity="0.2"/>
  <rect x="20" y="36" width="80" height="6" rx="3" fill="#d97757"/>
</g>

</svg>