<svg xmlns="http://www.w3.org/2000/svg" viewBox="0 0 600 400" preserveAspectRatio="xMidYMid slice" role="img">
<defs>
  <linearGradient id="bg" x1="0" y1="0" x2="1" y2="1">
    <stop offset="0%" stop-color="#fbe9dd"/>
    <stop offset="100%" stop-color="#faf7f2"/>
  </linearGradient>
  <radialGradient id="glow" cx="50%" cy="50%" r="55%">
    <stop offset="0%" stop-color="#d97757" stop-opacity="0.18"/>
    <stop offset="100%" stop-color="#d97757" stop-opacity="0"/>
  </radialGradient>
  <pattern id="dots" x="0" y="0" width="22" height="22" patternUnits="userSpaceOnUse">
    <circle cx="2" cy="2" r="1" fill="#d97757" opacity="0.13"/>
  </pattern>
</defs>
<rect width="600" height="400" fill="url(#bg)"/>
<rect width="600" height="400" fill="url(#dots)"/>
<rect width="600" height="400" fill="url(#glow)"/>

<g transform="translate(300 200)">
  <path d="M-130 -20 Q0 80 130 -20" fill="none" stroke="#d97757" stroke-width="6" stroke-linecap="round"/>
  <path d="M-100 -10 Q0 50 100 -10" fill="none" stroke="#1c1917" stroke-width="3" stroke-linecap="round" opacity="0.7"/>
  <g fill="white" stroke="#1c1917" stroke-width="1.5">
    <rect x="-80" y="-10" width="22" height="34" rx="6"/>
    <rect x="-55" y="-5" width="22" height="38" rx="6"/>
    <rect x="-30" y="-2" width="22" height="40" rx="6"/>
    <rect x="-5" y="-2" width="22" height="40" rx="6"/>
    <rect x="20" y="-5" width="22" height="38" rx="6"/>
    <rect x="45" y="-10" width="22" height="34" rx="6"/>
  </g>
  <circle cx="-150" cy="-50" r="6" fill="#d97757"/>
  <circle cx="150" cy="-50" r="6" fill="#d97757"/>
</g>
<g fill="#1c1917" font-family="Outfit, sans-serif" font-weight="900">
  <text x="300" y="80" text-anchor="middle" font-size="20" letter-spacing="5">ATELIER DU SOURIRE</text>
</g>

</svg>