<svg xmlns="http://www.w3.org/2000/svg" viewBox="0 0 600 400" preserveAspectRatio="xMidYMid slice" role="img">
<defs>
  <linearGradient id="bg" x1="0" y1="0" x2="1" y2="1">
    <stop offset="0%" stop-color="#fbe9dd"/>
    <stop offset="100%" stop-color="#faf7f2"/>
  </linearGradient>
  <radialGradient id="glow" cx="50%" cy="50%" r="55%">
    <stop offset="0%" stop-color="#d97757" stop-opacity="0.18"/>
    <stop offset="100%" stop-color="#d97757" stop-opacity="0"/>
  </radialGradient>
  <pattern id="dots" x="0" y="0" width="22" height="22" patternUnits="userSpaceOnUse">
    <circle cx="2" cy="2" r="1" fill="#d97757" opacity="0.13"/>
  </pattern>
</defs>
<rect width="600" height="400" fill="url(#bg)"/>
<rect width="600" height="400" fill="url(#dots)"/>
<rect width="600" height="400" fill="url(#glow)"/>

<g transform="translate(200 60)">
  <rect width="200" height="280" rx="22" fill="rgba(28,25,23,0.92)"/>
  <rect x="14" y="20" width="172" height="60" rx="10" fill="rgba(255,255,255,0.05)"/>
  <text x="178" y="60" text-anchor="end" font-family="JetBrains Mono, monospace" font-size="26" fill="white" font-weight="700">2 048</text>
  <text x="178" y="36" text-anchor="end" font-family="JetBrains Mono, monospace" font-size="10" fill="#d97757" font-weight="700">256 × 8</text>
  <g font-family="Outfit, sans-serif" font-weight="700" font-size="14">
<rect x="14" y="96" width="38" height="38" rx="10" fill="rgba(255,255,255,0.1)"/><rect x="59" y="96" width="38" height="38" rx="10" fill="rgba(255,255,255,0.1)"/><rect x="104" y="96" width="38" height="38" rx="10" fill="rgba(255,255,255,0.1)"/><rect x="149" y="96" width="38" height="38" rx="10" fill="rgba(255,255,255,0.1)"/><rect x="14" y="138" width="38" height="38" rx="10" fill="rgba(255,255,255,0.1)"/><rect x="59" y="138" width="38" height="38" rx="10" fill="rgba(255,255,255,0.1)"/><rect x="104" y="138" width="38" height="38" rx="10" fill="rgba(255,255,255,0.1)"/><rect x="149" y="138" width="38" height="38" rx="10" fill="rgba(255,255,255,0.1)"/><rect x="14" y="180" width="38" height="38" rx="10" fill="rgba(255,255,255,0.1)"/><rect x="59" y="180" width="38" height="38" rx="10" fill="rgba(255,255,255,0.1)"/><rect x="104" y="180" width="38" height="38" rx="10" fill="rgba(255,255,255,0.1)"/><rect x="149" y="180" width="38" height="38" rx="10" fill="rgba(255,255,255,0.1)"/><rect x="14" y="222" width="38" height="38" rx="10" fill="rgba(255,255,255,0.1)"/><rect x="59" y="222" width="38" height="38" rx="10" fill="rgba(255,255,255,0.1)"/><rect x="104" y="222" width="38" height="38" rx="10" fill="rgba(255,255,255,0.1)"/><rect x="149" y="222" width="38" height="38" rx="10" fill="rgba(255,255,255,0.1)"/>
    <rect x="14" y="222" width="83" height="38" rx="10" fill="#d97757"/>
    <text x="55" y="247" text-anchor="middle" fill="white">0</text>
    <text x="105" y="247" text-anchor="middle" fill="white">.</text>
    <rect x="104" y="222" width="38" height="38" rx="10" fill="rgba(255,255,255,0.1)"/>
    <rect x="149" y="222" width="38" height="38" rx="10" fill="#d97757"/>
    <text x="168" y="247" text-anchor="middle" fill="white">=</text>
  </g>
</g>

</svg>