<svg xmlns="http://www.w3.org/2000/svg" viewBox="0 0 600 400" preserveAspectRatio="xMidYMid slice" role="img">
<defs>
  <linearGradient id="bg" x1="0" y1="0" x2="1" y2="1">
    <stop offset="0%" stop-color="#fbe9dd"/>
    <stop offset="100%" stop-color="#faf7f2"/>
  </linearGradient>
  <radialGradient id="glow" cx="50%" cy="50%" r="55%">
    <stop offset="0%" stop-color="#d97757" stop-opacity="0.18"/>
    <stop offset="100%" stop-color="#d97757" stop-opacity="0"/>
  </radialGradient>
  <pattern id="dots" x="0" y="0" width="22" height="22" patternUnits="userSpaceOnUse">
    <circle cx="2" cy="2" r="1" fill="#d97757" opacity="0.13"/>
  </pattern>
</defs>
<rect width="600" height="400" fill="url(#bg)"/>
<rect width="600" height="400" fill="url(#dots)"/>
<rect width="600" height="400" fill="url(#glow)"/>

<g transform="translate(300 200)">
  <path d="M-70 -90 Q-110 -100 -110 -50 Q-110 0 -90 50 Q-70 100 -50 100 Q-30 100 -25 50 Q-20 -10 0 -10 Q20 -10 25 50 Q30 100 50 100 Q70 100 90 50 Q110 0 110 -50 Q110 -100 70 -90 Q40 -85 0 -85 Q-40 -85 -70 -90 Z"
        fill="white" stroke="#1c1917" stroke-width="3"/>
  <path d="M-50 -50 Q-30 -30 -30 0" fill="none" stroke="#d97757" stroke-width="2" opacity="0.4"/>
  <path d="M50 -50 Q30 -30 30 0" fill="none" stroke="#d97757" stroke-width="2" opacity="0.4"/>
</g>
<g transform="translate(120 100)">
  <circle r="22" fill="#d97757"/>
  <path d="M-8 -2 L-2 6 L10 -8" stroke="white" stroke-width="3" fill="none" stroke-linecap="round" stroke-linejoin="round"/>
</g>
<g fill="#1c1917" font-family="Outfit, sans-serif" font-weight="900">
  <text x="300" y="370" text-anchor="middle" font-size="13" letter-spacing="5">CABINET DENTAIRE</text>
</g>

</svg>