<svg xmlns="http://www.w3.org/2000/svg" viewBox="0 0 600 400" preserveAspectRatio="xMidYMid slice" role="img">
<defs>
  <linearGradient id="bg" x1="0" y1="0" x2="1" y2="1">
    <stop offset="0%" stop-color="#fbe9dd"/>
    <stop offset="100%" stop-color="#faf7f2"/>
  </linearGradient>
  <radialGradient id="glow" cx="50%" cy="50%" r="55%">
    <stop offset="0%" stop-color="#d97757" stop-opacity="0.18"/>
    <stop offset="100%" stop-color="#d97757" stop-opacity="0"/>
  </radialGradient>
  <pattern id="dots" x="0" y="0" width="22" height="22" patternUnits="userSpaceOnUse">
    <circle cx="2" cy="2" r="1" fill="#d97757" opacity="0.13"/>
  </pattern>
</defs>
<rect width="600" height="400" fill="url(#bg)"/>
<rect width="600" height="400" fill="url(#dots)"/>
<rect width="600" height="400" fill="url(#glow)"/>

<g transform="translate(170 90)">
  <rect x="0" y="0" width="280" height="220" rx="14" fill="white" stroke="#1c1917" stroke-width="2"/>
  <rect x="16" y="16" width="80" height="6" rx="3" fill="#d97757"/>
  <rect x="16" y="32" width="160" height="4" rx="2" fill="#1c1917" opacity="0.3"/>
  <rect x="16" y="56" width="120" height="120" rx="8" fill="#fbe9dd"/>
  <circle cx="76" cy="116" r="22" fill="#d97757" opacity="0.4"/>
  <rect x="160" y="56" width="104" height="40" rx="6" fill="#d97757" opacity="0.7"/>
  <rect x="160" y="104" width="104" height="40" rx="6" fill="#1c1917" opacity="0.85"/>
  <rect x="160" y="152" width="104" height="24" rx="6" fill="#1c1917" opacity="0.15"/>
  <rect x="16" y="188" width="248" height="20" rx="4" fill="#1c1917" opacity="0.1"/>
</g>
<g transform="translate(120 60)" opacity="0.5">
  <rect x="0" y="0" width="280" height="220" rx="14" fill="white" stroke="#1c1917" stroke-width="2"/>
</g>
<g transform="translate(220 120)" opacity="0.7">
  <rect x="0" y="0" width="280" height="220" rx="14" fill="white" stroke="#1c1917" stroke-width="2"/>
</g>

</svg>