<svg xmlns="http://www.w3.org/2000/svg" viewBox="0 0 600 400" preserveAspectRatio="xMidYMid slice" role="img">
<defs>
  <linearGradient id="bg" x1="0" y1="0" x2="1" y2="1">
    <stop offset="0%" stop-color="#fbe9dd"/>
    <stop offset="100%" stop-color="#faf7f2"/>
  </linearGradient>
  <radialGradient id="glow" cx="50%" cy="50%" r="55%">
    <stop offset="0%" stop-color="#d97757" stop-opacity="0.18"/>
    <stop offset="100%" stop-color="#d97757" stop-opacity="0"/>
  </radialGradient>
  <pattern id="dots" x="0" y="0" width="22" height="22" patternUnits="userSpaceOnUse">
    <circle cx="2" cy="2" r="1" fill="#d97757" opacity="0.13"/>
  </pattern>
</defs>
<rect width="600" height="400" fill="url(#bg)"/>
<rect width="600" height="400" fill="url(#dots)"/>
<rect width="600" height="400" fill="url(#glow)"/>

<rect x="0" y="280" width="600" height="120" fill="#1c1917"/>
<g stroke="#d97757" stroke-width="3" stroke-dasharray="22 16" opacity="0.7">
  <line x1="0" y1="340" x2="600" y2="340"/>
</g>
<g transform="translate(200 200)">
  <path d="M0 70 L25 25 Q35 10 55 10 L145 10 Q165 10 175 25 L200 70 L200 95 Q200 110 185 110 L160 110 Q155 95 145 95 Q135 95 130 110 L70 110 Q65 95 55 95 Q45 95 40 110 L15 110 Q0 110 0 95 Z" fill="#d97757"/>
  <path d="M30 30 L40 60 L160 60 L170 30 Z" fill="#faf7f2" opacity="0.85"/>
  <line x1="100" y1="30" x2="100" y2="60" stroke="#1c1917" stroke-width="1.5"/>
  <circle cx="55" cy="105" r="14" fill="#1c1917"/>
  <circle cx="55" cy="105" r="6" fill="#8a857d"/>
  <circle cx="145" cy="105" r="14" fill="#1c1917"/>
  <circle cx="145" cy="105" r="6" fill="#8a857d"/>
</g>
<g transform="translate(60 90)" fill="#1c1917">
  <rect x="0" y="0" width="120" height="50" rx="6" stroke="#d97757" stroke-width="2" fill="white"/>
  <text x="60" y="22" text-anchor="middle" font-family="JetBrains Mono, monospace" font-size="10" fill="#8a857d" font-weight="700">FR · 2A · 54</text>
  <text x="60" y="42" text-anchor="middle" font-family="Outfit, sans-serif" font-size="20" font-weight="900">2A 426 GR</text>
</g>

</svg>