<svg xmlns="http://www.w3.org/2000/svg" viewBox="0 0 600 400" preserveAspectRatio="xMidYMid slice" role="img">
<defs>
  <linearGradient id="bg" x1="0" y1="0" x2="1" y2="1">
    <stop offset="0%" stop-color="#fbe9dd"/>
    <stop offset="100%" stop-color="#faf7f2"/>
  </linearGradient>
  <radialGradient id="glow" cx="50%" cy="50%" r="55%">
    <stop offset="0%" stop-color="#d97757" stop-opacity="0.18"/>
    <stop offset="100%" stop-color="#d97757" stop-opacity="0"/>
  </radialGradient>
  <pattern id="dots" x="0" y="0" width="22" height="22" patternUnits="userSpaceOnUse">
    <circle cx="2" cy="2" r="1" fill="#d97757" opacity="0.13"/>
  </pattern>
</defs>
<rect width="600" height="400" fill="url(#bg)"/>
<rect width="600" height="400" fill="url(#dots)"/>
<rect width="600" height="400" fill="url(#glow)"/>

<g transform="translate(220 50)">
  <rect x="0" y="0" width="160" height="300" rx="22" fill="#1c1917"/>
  <rect x="6" y="6" width="148" height="288" rx="18" fill="#faf7f2"/>
  <rect x="60" y="14" width="40" height="6" rx="3" fill="#1c1917" opacity="0.3"/>
  <rect x="20" y="40" width="120" height="60" rx="10" fill="#1c1917"/>
  <text x="130" y="80" text-anchor="end" font-family="JetBrains Mono, monospace" font-size="22" fill="#d97757" font-weight="700">3 826,18</text>
  <text x="130" y="56" text-anchor="end" font-family="Outfit, sans-serif" font-size="9" fill="#888" font-weight="600" letter-spacing="2">NET MENSUEL</text>
</g>
<g transform="translate(240 170)" font-family="JetBrains Mono, monospace" font-size="14" font-weight="700">
  <g fill="white">
    <rect x="0" y="0" width="28" height="28" rx="6" fill="white" stroke="#d97757"/>
    <text x="14" y="20" text-anchor="middle" fill="#1c1917">7</text>
    <rect x="36" y="0" width="28" height="28" rx="6" fill="white" stroke="#d97757"/>
    <text x="50" y="20" text-anchor="middle" fill="#1c1917">8</text>
    <rect x="72" y="0" width="28" height="28" rx="6" fill="white" stroke="#d97757"/>
    <text x="86" y="20" text-anchor="middle" fill="#1c1917">9</text>
    <rect x="108" y="0" width="28" height="28" rx="6" fill="#d97757"/>
    <text x="122" y="20" text-anchor="middle" fill="white">÷</text>
  </g>
  <g fill="white">
    <rect x="0" y="36" width="28" height="28" rx="6" fill="white" stroke="#d97757"/>
    <text x="14" y="56" text-anchor="middle" fill="#1c1917">4</text>
    <rect x="36" y="36" width="28" height="28" rx="6" fill="white" stroke="#d97757"/>
    <text x="50" y="56" text-anchor="middle" fill="#1c1917">5</text>
    <rect x="72" y="36" width="28" height="28" rx="6" fill="white" stroke="#d97757"/>
    <text x="86" y="56" text-anchor="middle" fill="#1c1917">6</text>
    <rect x="108" y="36" width="28" height="28" rx="6" fill="#d97757"/>
    <text x="122" y="56" text-anchor="middle" fill="white">×</text>
  </g>
  <g fill="white">
    <rect x="0" y="72" width="28" height="28" rx="6" fill="white" stroke="#d97757"/>
    <text x="14" y="92" text-anchor="middle" fill="#1c1917">1</text>
    <rect x="36" y="72" width="28" height="28" rx="6" fill="white" stroke="#d97757"/>
    <text x="50" y="92" text-anchor="middle" fill="#1c1917">2</text>
    <rect x="72" y="72" width="28" height="28" rx="6" fill="white" stroke="#d97757"/>
    <text x="86" y="92" text-anchor="middle" fill="#1c1917">3</text>
    <rect x="108" y="72" width="28" height="28" rx="6" fill="#d97757"/>
    <text x="122" y="92" text-anchor="middle" fill="white">−</text>
  </g>
</g>

</svg>