<svg xmlns="http://www.w3.org/2000/svg" viewBox="0 0 600 400" preserveAspectRatio="xMidYMid slice" role="img">
<defs>
  <linearGradient id="bg" x1="0" y1="0" x2="1" y2="1">
    <stop offset="0%" stop-color="#fbe9dd"/>
    <stop offset="100%" stop-color="#faf7f2"/>
  </linearGradient>
  <radialGradient id="glow" cx="50%" cy="50%" r="55%">
    <stop offset="0%" stop-color="#d97757" stop-opacity="0.18"/>
    <stop offset="100%" stop-color="#d97757" stop-opacity="0"/>
  </radialGradient>
  <pattern id="dots" x="0" y="0" width="22" height="22" patternUnits="userSpaceOnUse">
    <circle cx="2" cy="2" r="1" fill="#d97757" opacity="0.13"/>
  </pattern>
</defs>
<rect width="600" height="400" fill="url(#bg)"/>
<rect width="600" height="400" fill="url(#dots)"/>
<rect width="600" height="400" fill="url(#glow)"/>

<g transform="translate(80 100)">
  <rect x="0" y="0" width="200" height="200" rx="12" fill="white" stroke="#d97757" stroke-width="1.5"/>
  <rect x="16" y="16" width="40" height="6" rx="3" fill="#d97757"/>
  <rect x="16" y="28" width="80" height="4" rx="2" fill="#1c1917" opacity="0.2"/>
  <g transform="translate(16 60)">
    <rect x="0" y="100" width="22" height="40" rx="2" fill="#d97757" opacity="0.4"/>
    <rect x="32" y="60" width="22" height="80" rx="2" fill="#d97757" opacity="0.6"/>
    <rect x="64" y="40" width="22" height="100" rx="2" fill="#d97757" opacity="0.8"/>
    <rect x="96" y="20" width="22" height="120" rx="2" fill="#d97757"/>
    <rect x="128" y="50" width="22" height="90" rx="2" fill="#d97757" opacity="0.8"/>
  </g>
</g>
<g transform="translate(320 100)">
  <rect x="0" y="0" width="200" height="90" rx="12" fill="#1c1917"/>
  <text x="16" y="30" font-family="JetBrains Mono, monospace" font-size="10" fill="#d97757" font-weight="700" letter-spacing="1">REVENUS · 24H</text>
  <text x="16" y="62" font-family="Outfit, sans-serif" font-size="28" fill="white" font-weight="900">€ 4 218</text>
  <text x="16" y="78" font-family="JetBrains Mono, monospace" font-size="9" fill="#74e09a" font-weight="600">▲ +12,4%</text>
</g>
<g transform="translate(320 210)">
  <rect x="0" y="0" width="200" height="90" rx="12" fill="white" stroke="#d97757" stroke-width="1.5"/>
  <text x="16" y="30" font-family="JetBrains Mono, monospace" font-size="10" fill="#d97757" font-weight="700" letter-spacing="1">COMMANDES</text>
  <text x="16" y="62" font-family="Outfit, sans-serif" font-size="28" fill="#1c1917" font-weight="900">142</text>
  <g transform="translate(120 50)">
    <circle cx="14" cy="14" r="14" fill="#d97757" opacity="0.2"/>
    <circle cx="14" cy="14" r="14" fill="none" stroke="#d97757" stroke-width="3" stroke-dasharray="60 90"/>
  </g>
</g>

</svg>