<svg xmlns="http://www.w3.org/2000/svg" viewBox="0 0 600 400" preserveAspectRatio="xMidYMid slice" role="img">
<defs>
  <linearGradient id="bg" x1="0" y1="0" x2="1" y2="1">
    <stop offset="0%" stop-color="#fbe9dd"/>
    <stop offset="100%" stop-color="#faf7f2"/>
  </linearGradient>
  <radialGradient id="glow" cx="50%" cy="50%" r="55%">
    <stop offset="0%" stop-color="#d97757" stop-opacity="0.18"/>
    <stop offset="100%" stop-color="#d97757" stop-opacity="0"/>
  </radialGradient>
  <pattern id="dots" x="0" y="0" width="22" height="22" patternUnits="userSpaceOnUse">
    <circle cx="2" cy="2" r="1" fill="#d97757" opacity="0.13"/>
  </pattern>
</defs>
<rect width="600" height="400" fill="url(#bg)"/>
<rect width="600" height="400" fill="url(#dots)"/>
<rect width="600" height="400" fill="url(#glow)"/>

<defs>
  <radialGradient id="pearl" cx="40%" cy="35%" r="60%">
    <stop offset="0%" stop-color="#5a5a5a"/>
    <stop offset="60%" stop-color="#1c1917"/>
    <stop offset="100%" stop-color="#000"/>
  </radialGradient>
</defs>
<circle cx="300" cy="200" r="110" fill="url(#pearl)"/>
<circle cx="270" cy="170" r="20" fill="white" opacity="0.35"/>
<circle cx="300" cy="200" r="125" fill="none" stroke="#d97757" stroke-width="1.5" opacity="0.5"/>
<circle cx="300" cy="200" r="140" fill="none" stroke="#d97757" stroke-width="1" opacity="0.25"/>
<g stroke="#c2410c" stroke-width="1.5" fill="none" opacity="0.8">
  <path d="M150 200 Q170 200 180 180"/>
  <path d="M450 200 Q430 200 420 180"/>
  <path d="M150 200 Q170 200 180 220"/>
  <path d="M450 200 Q430 200 420 220"/>
</g>
<g fill="#1c1917" font-family="Outfit, sans-serif" font-weight="900">
  <text x="300" y="80" text-anchor="middle" font-size="20" letter-spacing="6">LA PERLE NOIRE</text>
  <text x="300" y="350" text-anchor="middle" font-size="10" fill="#8a857d" font-weight="500" letter-spacing="3">Gastronomie Halal · Fusion</text>
</g>

</svg>