<svg xmlns="http://www.w3.org/2000/svg" viewBox="0 0 600 400" preserveAspectRatio="xMidYMid slice" role="img">
<defs>
  <linearGradient id="bg" x1="0" y1="0" x2="1" y2="1">
    <stop offset="0%" stop-color="#fbe9dd"/>
    <stop offset="100%" stop-color="#faf7f2"/>
  </linearGradient>
  <radialGradient id="glow" cx="50%" cy="50%" r="55%">
    <stop offset="0%" stop-color="#d97757" stop-opacity="0.18"/>
    <stop offset="100%" stop-color="#d97757" stop-opacity="0"/>
  </radialGradient>
  <pattern id="dots" x="0" y="0" width="22" height="22" patternUnits="userSpaceOnUse">
    <circle cx="2" cy="2" r="1" fill="#d97757" opacity="0.13"/>
  </pattern>
</defs>
<rect width="600" height="400" fill="url(#bg)"/>
<rect width="600" height="400" fill="url(#dots)"/>
<rect width="600" height="400" fill="url(#glow)"/>

<g transform="translate(180 80)" stroke="#1c1917" stroke-width="2.5" fill="none">
  <path d="M0 30 Q0 0 40 0 Q80 0 80 30 Q80 80 40 110 Q0 80 0 30 Z" fill="rgba(217,119,87,0.45)"/>
  <line x1="40" y1="110" x2="40" y2="200"/>
  <ellipse cx="40" cy="210" rx="40" ry="6" fill="white"/>
</g>
<g transform="translate(330 200)">
  <circle r="80" fill="white" stroke="#d97757" stroke-width="2"/>
  <circle r="60" fill="none" stroke="#d97757" stroke-width="1" opacity="0.4"/>
  <g fill="#d97757">
    <circle cx="-20" cy="-15" r="6"/>
    <circle cx="20" cy="-10" r="5"/>
    <path d="M-30 15 Q0 0 30 15 Q15 30 -30 15 Z" opacity="0.6"/>
  </g>
</g>
<g fill="#1c1917" font-family="Outfit, sans-serif" font-weight="900">
  <text x="300" y="370" text-anchor="middle" font-size="14" letter-spacing="6">MADDAK</text>
</g>

</svg>