<svg xmlns="http://www.w3.org/2000/svg" viewBox="0 0 600 400" preserveAspectRatio="xMidYMid slice" role="img">
<defs>
  <linearGradient id="bg" x1="0" y1="0" x2="1" y2="1">
    <stop offset="0%" stop-color="#fbe9dd"/>
    <stop offset="100%" stop-color="#faf7f2"/>
  </linearGradient>
  <radialGradient id="glow" cx="50%" cy="50%" r="55%">
    <stop offset="0%" stop-color="#d97757" stop-opacity="0.18"/>
    <stop offset="100%" stop-color="#d97757" stop-opacity="0"/>
  </radialGradient>
  <pattern id="dots" x="0" y="0" width="22" height="22" patternUnits="userSpaceOnUse">
    <circle cx="2" cy="2" r="1" fill="#d97757" opacity="0.13"/>
  </pattern>
</defs>
<rect width="600" height="400" fill="url(#bg)"/>
<rect width="600" height="400" fill="url(#dots)"/>
<rect width="600" height="400" fill="url(#glow)"/>

<circle cx="300" cy="200" r="130" fill="white" stroke="#d97757" stroke-width="3"/>
<circle cx="300" cy="200" r="100" fill="none" stroke="#d97757" stroke-width="1.5" opacity="0.4"/>
<g stroke="#c2410c" stroke-width="3" fill="none" stroke-linecap="round" opacity="0.85">
  <path d="M240 180 Q260 150 290 175 T350 180 Q370 195 350 215 Q335 235 305 220 T245 215 Q230 200 240 180 Z"/>
  <path d="M260 200 Q280 180 305 200 T350 205"/>
  <path d="M250 215 Q280 200 310 220 T355 220"/>
</g>
<g fill="#d97757">
  <circle cx="280" cy="170" r="4"/>
  <circle cx="320" cy="180" r="4"/>
  <circle cx="295" cy="200" r="3"/>
</g>
<g fill="#1c1917" font-family="Outfit, sans-serif" font-weight="900">
  <text x="300" y="80" text-anchor="middle" font-size="22" letter-spacing="3">TANTI GUSTI</text>
  <text x="300" y="350" text-anchor="middle" font-size="11" fill="#8a857d" font-weight="500" letter-spacing="2">Cucina Italiana</text>
</g>

</svg>