<svg xmlns="http://www.w3.org/2000/svg" viewBox="0 0 600 400" preserveAspectRatio="xMidYMid slice" role="img">
<defs>
  <linearGradient id="bg" x1="0" y1="0" x2="1" y2="1">
    <stop offset="0%" stop-color="#fbe9dd"/>
    <stop offset="100%" stop-color="#faf7f2"/>
  </linearGradient>
  <radialGradient id="glow" cx="50%" cy="50%" r="55%">
    <stop offset="0%" stop-color="#d97757" stop-opacity="0.18"/>
    <stop offset="100%" stop-color="#d97757" stop-opacity="0"/>
  </radialGradient>
  <pattern id="dots" x="0" y="0" width="22" height="22" patternUnits="userSpaceOnUse">
    <circle cx="2" cy="2" r="1" fill="#d97757" opacity="0.13"/>
  </pattern>
</defs>
<rect width="600" height="400" fill="url(#bg)"/>
<rect width="600" height="400" fill="url(#dots)"/>
<rect width="600" height="400" fill="url(#glow)"/>

<g transform="translate(140 80)">
  <rect width="320" height="240" rx="14" fill="white" stroke="#1c1917" stroke-width="1.5"/>
  <rect x="0" y="0" width="320" height="50" rx="14" fill="#1c1917"/>
  <text x="20" y="32" font-family="Outfit, sans-serif" font-size="18" fill="white" font-weight="800">TODAY · 4/6</text>
  <g transform="translate(20 70)" font-family="Outfit, sans-serif">
    <g fill="#1c1917" font-size="14">
      <circle cx="10" cy="10" r="9" fill="#d97757"/>
      <path d="M5 10 L9 14 L15 7" stroke="white" stroke-width="2" fill="none" stroke-linecap="round"/>
      <text x="30" y="14" text-decoration="line-through" opacity="0.5">Lire spec API parking</text>

      <circle cx="10" cy="40" r="9" fill="#d97757"/>
      <path d="M5 40 L9 44 L15 37" stroke="white" stroke-width="2" fill="none" stroke-linecap="round"/>
      <text x="30" y="44" text-decoration="line-through" opacity="0.5">Démo MIAGE — vendredi</text>

      <circle cx="10" cy="70" r="9" fill="white" stroke="#1c1917" stroke-width="2"/>
      <text x="30" y="74">Recueil besoins KPI</text>

      <circle cx="10" cy="100" r="9" fill="white" stroke="#1c1917" stroke-width="2"/>
      <text x="30" y="104">Pipeline n8n - retry logs</text>

      <circle cx="10" cy="130" r="9" fill="white" stroke="#1c1917" stroke-width="2"/>
      <text x="30" y="134" opacity="0.7">Roadmap Q3</text>
    </g>
  </g>
</g>

</svg>